<svg width="97" height="24" viewBox="0 0 97 24" fill="none" xmlns="http://www.w3.org/2000/svg">
<path d="M19.6426 12.8877C18.8438 12.8338 18.0412 12.7786 17.2411 12.7773C15.7251 12.7734 14.2065 12.7997 12.6905 12.8312C11.8695 12.8496 11.0497 12.8916 10.2313 12.9534C9.23946 13.0296 8.25025 13.1282 7.26105 13.2346C4.86619 13.4909 2.50418 13.9246 0.175013 14.5382C0.16713 14.5409 0.159249 14.5435 0.151367 14.5461C0.189464 14.7301 0.234129 14.9141 0.280108 15.0968C0.900169 15.1244 1.51892 15.1533 2.14029 15.1769C2.71043 15.1993 3.27926 15.215 3.8494 15.24C4.66914 15.2755 5.48757 15.3175 6.30731 15.3504C6.89584 15.374 7.48569 15.3872 8.07422 15.4108C8.99117 15.4476 9.90813 15.4871 10.8238 15.5238C11.3545 15.5462 11.8852 15.5633 12.416 15.5856C13.3329 15.6224 14.2485 15.6618 15.1642 15.6973C15.7343 15.7197 16.3032 15.7367 16.8733 15.7578C17.8678 15.7946 18.8609 15.834 19.8554 15.8708C20.2022 15.8839 20.549 15.8944 20.8984 15.9036C21.6525 15.9233 22.4052 15.9431 23.158 15.9549C23.1908 15.9562 23.2197 15.9562 23.2434 15.9549C23.5403 15.0928 23.7386 14.1861 23.8293 13.2465C23.5324 13.211 23.2355 13.1729 22.936 13.1466C21.8377 13.0572 20.7408 12.9626 19.6426 12.8877Z" fill="#2764FF"/>
<path d="M23.3968 8.69959C23.3587 8.69302 23.3127 8.6917 23.2575 8.68776C21.9097 8.5984 20.5618 8.50115 19.2127 8.4315C18.0553 8.37368 16.8953 8.33426 15.7367 8.31849C14.7041 8.30403 13.6689 8.33032 12.635 8.34346C12.2961 8.3474 11.9585 8.35528 11.6222 8.37499C10.6579 8.42756 9.6937 8.46961 8.73077 8.54715C7.42234 8.6549 6.11521 8.77318 4.81072 8.92168C3.80312 9.03732 2.8021 9.20158 1.80107 9.35928C1.24406 9.44733 0.692313 9.56034 0.139251 9.67204C0.0840757 9.9467 0.0367833 10.2266 0 10.5091C1.54096 10.5578 23.2746 11.2214 23.8553 11.2345C23.7935 10.3593 23.6385 9.51041 23.3968 8.69959Z" fill="#2764FF"/>
<path d="M20.7812 4.0528C20.5369 4.03834 20.2952 4.00943 20.0508 4.00155C18.8633 3.96738 17.6757 3.92795 16.4881 3.91613C15.5515 3.90561 14.6135 3.92401 13.6781 3.94241C12.8282 3.96212 11.9782 3.97395 11.1309 4.03571C9.89997 4.12639 8.67036 4.24729 7.44075 4.37476C5.75792 4.54954 2.61295 5.20397 1.98369 5.3367C1.82868 5.56142 1.68286 5.79139 1.54492 6.02662C4.2012 6.12255 21.0072 6.69552 22.6257 6.74545C22.137 5.7638 21.513 4.85836 20.7812 4.0528Z" fill="#2764FF"/>
<path d="M20.8285 17.8998C19.5424 17.7737 18.2537 17.6002 16.9636 17.5621C15.0338 17.5069 13.0974 17.5029 11.1689 17.6409C9.9748 17.7263 8.7846 17.8499 7.59571 17.98C5.77756 18.1784 3.98701 18.524 2.21615 18.9761C2.17806 18.9853 2.14259 18.9958 2.10449 19.0063C2.22272 19.1719 2.34358 19.3348 2.47101 19.4939C2.73506 19.4991 2.99911 19.5109 3.26316 19.5201C3.79389 19.5398 4.32462 19.5582 4.85404 19.5819C5.65408 19.6174 6.45543 19.6594 7.25546 19.6923C7.85319 19.7159 8.45092 19.7291 9.04996 19.7527C10.1206 19.7974 11.19 19.85 12.2606 19.8933C13.129 19.9288 13.9986 19.9499 14.867 19.984C16.0046 20.0287 17.1423 20.0826 18.2812 20.1233C19.0905 20.1535 19.8997 20.1654 20.7076 20.193C21.2922 19.5635 21.8072 18.8723 22.242 18.1285C22.1973 18.1153 22.1566 18.1035 22.1146 18.0969C21.6876 18.0273 21.2607 17.9419 20.8285 17.8998Z" fill="#2764FF"/>
<path d="M18.5751 2.03034C18.3596 1.88447 18.139 1.74648 17.913 1.61638C16.1435 0.58873 14.0849 0 11.8897 0C9.69325 0 7.6347 0.58873 5.86648 1.61638C5.63001 1.75305 5.39881 1.89892 5.17285 2.05005H18.5777V2.03034H18.5751Z" fill="#2764FF"/>
<path d="M6.10756 22.448C7.79433 23.3758 9.7294 23.9093 11.7879 23.9264H11.9942C14.0527 23.9093 15.9878 23.3758 17.6746 22.448C17.9846 22.2785 18.2868 22.0945 18.5784 21.8974V21.875H5.1709C5.47305 22.0813 5.7857 22.2719 6.10756 22.448Z" fill="#2764FF"/>
<path d="M36.6466 6.10812C34.5513 6.10812 32.8027 7.31844 32.0815 9.22656V6.30524H29.2637V19.3007H32.0815V13.1808C32.226 11.8864 32.7357 10.8206 33.5962 10.0098C34.4554 9.2029 35.5063 8.79289 36.7202 8.79289C37.0236 8.79289 37.2456 8.81917 37.4046 8.84151L37.4847 8.85334V6.16463L37.4243 6.15543C37.1891 6.12389 36.9343 6.10812 36.6466 6.10812Z" fill="#1C2127"/>
<path d="M47.718 6.50754C46.9574 6.20923 46.1837 6.05811 45.4178 6.05811C44.6532 6.05811 43.8663 6.20923 43.082 6.50754C41.2718 7.18826 39.9909 8.32367 39.275 9.88092C38.4539 11.6432 38.4539 14.0112 39.275 15.7748C39.9936 17.3176 41.2744 18.4438 43.082 19.1245C43.8676 19.4097 44.6532 19.5556 45.4178 19.5556C46.1823 19.5556 46.9561 19.411 47.7167 19.1245C49.5322 18.4635 50.821 17.3373 51.5488 15.7748C52.3698 14.0125 52.3698 11.6432 51.5488 9.88223C50.8131 8.28293 49.5598 7.17906 47.718 6.50754ZM48.1883 15.9167C47.3962 16.6592 46.4622 17.0351 45.4112 17.0351C44.3524 17.0351 43.4354 16.6697 42.6091 15.9167C41.8012 15.1598 41.3913 14.1203 41.3913 12.8285C41.3913 11.5012 41.7894 10.4828 42.6078 9.71533C43.4538 8.94525 44.3708 8.57204 45.4112 8.57204C46.4451 8.57204 47.3791 8.95708 48.1897 9.71533C49.0252 10.4749 49.4311 11.4934 49.4311 12.8285C49.4311 14.1466 49.0252 15.1558 48.1883 15.9167Z" fill="#1C2127"/>
<path d="M59.9474 6.05813C58.417 6.05813 56.8773 6.64292 55.6136 7.70605C54.2789 8.82832 53.4814 10.7338 53.4814 12.8036C53.4814 14.872 54.2789 16.7775 55.6136 17.9011C56.8773 18.9642 58.417 19.549 59.9474 19.549C62.1071 19.549 63.698 18.3387 64.2786 17.2007H64.3141V24H67.132V6.02002L64.2563 8.3618C63.6546 7.23559 62.0782 6.05813 59.9474 6.05813ZM60.2942 17.0351C59.2183 17.0351 58.258 16.6592 57.4422 15.9167C56.6238 15.1493 56.2257 14.1308 56.2257 12.8036C56.2257 11.4763 56.6238 10.4578 57.4422 9.69039C58.258 8.94791 59.2183 8.57206 60.2942 8.57206C61.3951 8.57206 62.3541 8.94791 63.1462 9.69039C63.9818 10.45 64.3877 11.4684 64.3877 12.8036C64.3877 14.1387 63.9818 15.1559 63.1462 15.9167C62.3541 16.6579 61.3951 17.0351 60.2942 17.0351Z" fill="#1C2127"/>
<path d="M75.5241 6.05813C73.9936 6.05813 72.454 6.64292 71.1902 7.70605C69.8555 8.82832 69.0581 10.7338 69.0581 12.8036C69.0581 14.872 69.8555 16.7775 71.1902 17.9011C72.454 18.9642 73.9936 19.549 75.5241 19.549C77.6838 19.549 79.2747 18.3387 79.8553 17.2007H79.8908V24H82.7086V6.02002L79.833 8.3618C79.2326 7.23559 77.6549 6.05813 75.5241 6.05813ZM75.8709 17.0351C74.795 17.0351 73.8347 16.6592 73.0189 15.9167C72.2004 15.1493 71.8024 14.1308 71.8024 12.8036C71.8024 11.4763 72.2004 10.4578 73.0189 9.69039C73.8347 8.94791 74.795 8.57206 75.8709 8.57206C76.9718 8.57206 77.9308 8.94791 78.7242 9.69039C79.5597 10.45 79.9657 11.4684 79.9657 12.8036C79.9657 14.1387 79.5597 15.1572 78.7242 15.9167C77.9308 16.6579 76.9718 17.0351 75.8709 17.0351Z" fill="#1C2127"/>
<path d="M94.1823 6.30521V14.056C94.1101 14.7038 93.7501 15.3806 93.1104 16.0679C92.4995 16.725 91.6994 17.0588 90.7326 17.0588C88.8514 17.0588 87.7295 15.7906 87.7295 13.6683V6.30521H84.9116V13.8168C84.9116 15.6815 85.3937 17.1205 86.3449 18.093C87.2881 19.0589 88.456 19.5477 89.8156 19.5477C92.5087 19.5477 93.9051 17.5713 94.2782 16.6855L97.0002 19.0484V6.30389H94.1823V6.30521Z" fill="#1C2127"/>
</svg>
